<?xml version="1.0" standalone="no"?>
<!DOCTYPE svg PUBLIC "-//W3C//DTD SVG 20010904//EN"
 "http://www.w3.org/TR/2001/REC-SVG-20010904/DTD/svg10.dtd">
<svg version="1.0" xmlns="http://www.w3.org/2000/svg"
 width="512.000000pt" height="512.000000pt" viewBox="0 0 512.000000 512.000000"
 preserveAspectRatio="xMidYMid meet">
<metadata>
Created by potrace 1.14, written by Peter Selinger 2001-2017
</metadata>
<g transform="translate(0.000000,512.000000) scale(0.100000,-0.100000)"
fill="#000000" stroke="none">
<path d="M2409 4876 c-2 -2 -38 -6 -79 -9 -41 -4 -84 -8 -95 -11 -11 -2 -40
-7 -65 -11 -85 -14 -95 -16 -175 -36 -89 -23 -242 -73 -295 -96 -123 -54 -223
-102 -275 -132 -446 -255 -787 -633 -993 -1101 -87 -200 -154 -451 -180 -683
-9 -82 -9 -395 0 -477 15 -134 33 -234 63 -350 21 -82 73 -239 96 -287 10 -24
19 -45 19 -48 0 -7 91 -190 120 -240 187 -331 508 -654 841 -847 244 -142 590
-264 829 -293 14 -1 52 -7 85 -11 74 -11 450 -11 525 -1 30 5 80 13 110 18 30
6 66 12 80 14 80 11 318 83 432 130 86 36 250 119 315 161 29 19 56 34 59 34
2 0 10 4 17 10 7 5 53 40 104 77 276 204 498 459 661 760 26 48 54 104 61 123
8 19 18 40 23 46 20 27 115 308 133 392 2 9 9 40 15 67 32 137 49 331 45 525
-2 107 -6 211 -9 230 -4 19 -11 64 -17 100 -47 288 -150 569 -302 821 -263
437 -658 774 -1127 961 -72 29 -208 76 -240 83 -8 2 -53 13 -100 24 -153 37
-291 53 -486 57 -105 2 -193 2 -195 0z"/>
</g>
</svg>
